<?xml version="1.0" encoding="UTF-8"?> <svg xmlns="http://www.w3.org/2000/svg" xmlns:xlink="http://www.w3.org/1999/xlink" id="c4389bad-eab8-4739-baf5-b307dacd3bed" data-name="Layer 1" viewBox="0 0 612.59 212.39"><defs><linearGradient id="6e6516b0-e9d0-4823-87ee-875c47a34fd5" x1="73.6" y1="8.81" x2="73.6" y2="74.19" gradientUnits="userSpaceOnUse"><stop offset="0" stop-color="#bcbec0"></stop><stop offset="0.29" stop-color="#a7a9ac"></stop><stop offset="0.3" stop-color="#a6a8ab"></stop><stop offset="0.46" stop-color="#8c8f91"></stop><stop offset="0.63" stop-color="#7a7c7f"></stop><stop offset="0.81" stop-color="#6f7274"></stop><stop offset="1" stop-color="#6b6e70"></stop></linearGradient><linearGradient id="82a9dee0-f3d2-4d54-a654-23735205d435" x1="85.57" y1="0" x2="85.57" y2="57.39" xlink:href="#6e6516b0-e9d0-4823-87ee-875c47a34fd5"></linearGradient><linearGradient id="65ab7ff5-f1ab-43db-9e35-d3b567cb6d1f" x1="-123.5" y1="-153.3" x2="-123.03" y2="-153.3" gradientTransform="matrix(0, 103.01, 103.01, 0, 16318.31, 12825.32)" gradientUnits="userSpaceOnUse"><stop offset="0" stop-color="#bcbec0"></stop><stop offset="0.29" stop-color="#a7a9ac"></stop><stop offset="0.65" stop-color="#86898b"></stop><stop offset="1" stop-color="#6b6e70"></stop></linearGradient><linearGradient id="839c58b6-de3c-4948-8c42-f9a02d9fdef4" x1="-116.55" y1="-162.93" x2="-116.08" y2="-162.93" gradientTransform="matrix(0, 137.54, 137.54, 0, 22882.25, 16117.59)" xlink:href="#65ab7ff5-f1ab-43db-9e35-d3b567cb6d1f"></linearGradient><linearGradient id="dc41be32-a637-4cf5-96d2-984cb1ed5cbc" x1="-115.96" y1="-164.57" x2="-115.49" y2="-164.57" gradientTransform="matrix(0, 141.55, 141.55, 0, 23864.33, 16499.83)" xlink:href="#65ab7ff5-f1ab-43db-9e35-d3b567cb6d1f"></linearGradient><linearGradient id="5da7b914-85e9-45a0-b3fa-1d5e4463acf3" x1="-117.22" y1="-163.01" x2="-116.75" y2="-163.01" gradientTransform="matrix(0, 133.21, 133.21, 0, 22311.66, 15704.63)" xlink:href="#65ab7ff5-f1ab-43db-9e35-d3b567cb6d1f"></linearGradient><linearGradient id="0d9c0b3e-23df-4102-8391-6356e0e750e1" x1="85.77" y1="86.55" x2="85.77" y2="121.17" gradientUnits="userSpaceOnUse"><stop offset="0" stop-color="#af9674"></stop><stop offset="0.37" stop-color="#927349"></stop><stop offset="1" stop-color="#7e5d2c"></stop></linearGradient></defs><title>logo1</title><path d="M72.34,8.81s-16.9,18.37-4.41,35.27,9.21,30.12,9.21,30.12S89.6,53.63,80.61,37.91C71.2,21.46,72.34,8.81,72.34,8.81Z" style="fill:url(#6e6516b0-e9d0-4823-87ee-875c47a34fd5)"></path><path d="M84.46,0S69.63,16.12,80.58,31s8.09,26.44,8.09,26.44,10.95-18.06,3.05-31.84C83.46,11.1,84.46,0,84.46,0Z" style="fill:url(#82a9dee0-f3d2-4d54-a654-23735205d435)"></path><path d="M101.71,82.74s58.79,10.57,27,30.47C128.67,113.21,195,94.1,101.71,82.74Z" style="fill:#260e06"></path><path d="M15.1,97s.9-5.2-1.08-8.4-4.23-5.23-9-5.23H.34S-6,171.81,36.28,199.25C15.59,175.25,14.39,122.25,15.1,97Z" style="fill:#260e06"></path><rect x="198.73" y="173.39" width="413.85" height="2.93" style="fill:#260e06"></rect><path d="M527,151.91a21.91,21.91,0,0,1-9.19-1.9,22.8,22.8,0,0,1-7.2-5.16,23.37,23.37,0,0,1-4.72-7.59,24.77,24.77,0,0,1-1.68-9.1A24.47,24.47,0,0,1,505.9,119a23.89,23.89,0,0,1,4.76-7.59,23.14,23.14,0,0,1,7.2-5.21,21.16,21.16,0,0,1,9.1-1.94,21.47,21.47,0,0,1,9.14,1.94,23.08,23.08,0,0,1,7.25,5.21,24.2,24.2,0,0,1,4.77,7.59,24.66,24.66,0,0,1,1.72,9.19,25,25,0,0,1-1.68,9.1,23.5,23.5,0,0,1-4.72,7.59,22.61,22.61,0,0,1-7.25,5.16A22.14,22.14,0,0,1,527,151.91Zm-16.69-23.67a19.37,19.37,0,0,0,4.9,13,16,16,0,0,0,5.3,3.93,15.12,15.12,0,0,0,6.49,1.41,15,15,0,0,0,6.49-1.45,17.37,17.37,0,0,0,5.34-4,18.85,18.85,0,0,0,3.62-5.88,20.29,20.29,0,0,0,0-14.43A18.69,18.69,0,0,0,538.8,115a17.37,17.37,0,0,0-5.34-4,14.87,14.87,0,0,0-6.49-1.46,14.55,14.55,0,0,0-6.44,1.46,17.08,17.08,0,0,0-5.3,4,19.18,19.18,0,0,0-3.62,6A19.87,19.87,0,0,0,510.27,128.23Z" style="fill:url(#65ab7ff5-f1ab-43db-9e35-d3b567cb6d1f)"></path><path d="M296.13,111.15a22.88,22.88,0,0,0-7.6-5.25A25.11,25.11,0,0,0,278.42,104a25.47,25.47,0,0,0-10.16,1.94,22.83,22.83,0,0,0-7.63,5.25,23.21,23.21,0,0,0-4.82,7.64,25.77,25.77,0,0,0,0,18.28,23.14,23.14,0,0,0,4.82,7.63,22.74,22.74,0,0,0,7.63,5.26,27.57,27.57,0,0,0,20.32,0,22.27,22.27,0,0,0,7.6-5.26,23.44,23.44,0,0,0,4.77-7.63,25.68,25.68,0,0,0,0-18.28A23.19,23.19,0,0,0,296.13,111.15Zm-6.53,22.39A13.53,13.53,0,0,1,287,138a11.41,11.41,0,0,1-17.22,0,13.77,13.77,0,0,1-2.57-4.37,17.33,17.33,0,0,1,0-11.17,13.62,13.62,0,0,1,2.57-4.41,11.79,11.79,0,0,1,3.84-2.92,10.81,10.81,0,0,1,4.77-1.06,11.19,11.19,0,0,1,4.76,1A11.41,11.41,0,0,1,287,117.9a13.65,13.65,0,0,1,2.56,4.42,16.15,16.15,0,0,1,.93,5.56A16.49,16.49,0,0,1,289.59,133.54Z" style="fill:#260e06"></path><path d="M390.77,105.92a1,1,0,0,0-1-1h-10a1,1,0,0,0-1,1V150.2a1,1,0,0,0,1,1h10a1,1,0,0,0,1-1Z" style="fill:#260e06"></path><path d="M390.77,88.33a1,1,0,0,0-1-1h-10a1,1,0,0,0-1,1v9.55a1,1,0,0,0,1,1h10a1,1,0,0,0,1-1Z" style="fill:#260e06"></path><path d="M231.34,117.37a1.36,1.36,0,0,1,.06-1.59l22.7-26.51c.37-.42.21-.57-.35-.57h-11.4a2.4,2.4,0,0,0-1.68.56L221,111.64a4.7,4.7,0,0,1-.67.68l-.65.71-1.61,1.81V89.07c0-.55-.51-.37-1.06-.37H205.1c-.46,0,0-.18,0,.37V150.8c0,.56-.46,1.33,0,1.33H217c.55,0,1.06-.77,1.06-1.33V119.59l1.61.45a3.17,3.17,0,0,1,1.67.87l1.29,1.52c.35.43.89,1.16,1.21,1.61l18.84,27.14a2.33,2.33,0,0,0,1.59,1h11c.55,0,.74-.5.42-.95Z" style="fill:#260e06"></path><path d="M336.46,88.06s-6.68-2.39-10.45-2.39c-4.77,0-8.71,1.68-11.48,5s-4.34,7.92-4.34,13.68v1.82c0,.56-.09,1-.65,1h-4.07c-.55,0-.84.45-.84,1v7c0,.55.29,1.27.84,1.27h4.07c.55,0,.65.2.65.76V150c0,.56.81,1.19,1.38,1.19h9.8c.56,0,.87-.64.87-1.19V117.24c0-.56.61-.76,1.16-.76h9.28a1.37,1.37,0,0,0,1.13-1.27v-7a1.12,1.12,0,0,0-1.13-1h-9.28a1,1,0,0,1-1-1s-1.23-7.55,3.14-10.05S335,97.32,335,97.32l2.11-7.94A1.12,1.12,0,0,0,336.46,88.06Z" style="fill:#260e06"></path><path d="M372.9,88.06s-6.67-2.39-10.44-2.39c-4.76,0-8.65,1.68-11.41,5s-4.26,7.92-4.26,13.68v1.82c0,.56-.23,1-.79,1h-4.07a1.14,1.14,0,0,0-1.16,1v7a1.39,1.39,0,0,0,1.16,1.27H346c.55,0,.79.2.79.76V150a1.4,1.4,0,0,0,1.23,1.19h9.81a1.18,1.18,0,0,0,1-1.19V117.24c0-.56.47-.76,1-.76h9.28a1.51,1.51,0,0,0,1.27-1.27v-7c0-.56-.71-1-1.27-1h-9.28a1,1,0,0,1-1-1S357.6,98.66,362,96.16s9.49,1.17,9.49,1.17l2.12-7.94A1.13,1.13,0,0,0,372.9,88.06Z" style="fill:#260e06"></path><path d="M445.75,118.7A22.16,22.16,0,0,0,441,111.1a23.32,23.32,0,0,0-7.6-5.21A25.1,25.1,0,0,0,423.28,104a25.81,25.81,0,0,0-10.2,1.94,23.22,23.22,0,0,0-7.73,5.25,22.8,22.8,0,0,0-4.86,7.69,25.8,25.8,0,0,0-1.68,9.32,24.26,24.26,0,0,0,1.73,9.1,23,23,0,0,0,4.9,7.59,23.31,23.31,0,0,0,7.68,5.16l.49.19c.52.17,1.15.36,1.86.55s1.52.34,2.28.47,8.25,1.25,14.43-.65A18.22,18.22,0,0,0,441,145h0l.31-.34a21.42,21.42,0,0,0,2.85-5l-8.63-2.4a1.46,1.46,0,0,0-1.52.58,12.76,12.76,0,0,1-3.73,3.7,13.63,13.63,0,0,1-6.67,1.72,12.61,12.61,0,0,1-4.42-.79,11.85,11.85,0,0,1-3.8-2.3,10.76,10.76,0,0,1-2.73-3.35,14.92,14.92,0,0,1-1.33-4.59h34.76c.55,0,1.1-.72,1.19-1.27,0,0,0-.2,0-.91s0-1.51,0-2.28A25.58,25.58,0,0,0,445.75,118.7Zm-11.56,5.66h-22a1,1,0,0,1-.85-1.18,16.83,16.83,0,0,1,1-3.77,12.45,12.45,0,0,1,2.61-3.67,11.72,11.72,0,0,1,8.13-3.21,12.21,12.21,0,0,1,5.49,1.21l0,0,.18.1a12.55,12.55,0,0,1,4.87,5.48,24.86,24.86,0,0,1,1.27,3.85A.89.89,0,0,1,434.19,124.35Z" style="fill:#260e06"></path><path d="M496.23,127.53a13.82,13.82,0,0,0-4.33-4.81,25.82,25.82,0,0,0-6.85-3.31A85.39,85.39,0,0,0,476,117c-3-.65-5.61-1.29-7.81-1.94a21.79,21.79,0,0,1-5.43-2.3,8.9,8.9,0,0,1-3.14-3.14,9.41,9.41,0,0,1-1-4.63,10.47,10.47,0,0,1,3.8-8.52,14.52,14.52,0,0,1,7.24-2.8v0s6.32-1,11.13.33h0A23.13,23.13,0,0,1,489,97.9h0l.26.22c.31.24.62.29.94.77h0l.49.38h0a.73.73,0,0,1,.13.1c.35.23.89.37,1.35-.39l2.36-3.86a30,30,0,0,0-8.86-5.34,30.84,30.84,0,0,0-11.17-1.89,31.75,31.75,0,0,0-9,1.2,21.77,21.77,0,0,0-7.06,3.44,15.22,15.22,0,0,0-4.64,5.65,17.65,17.65,0,0,0-1.63,7.73,14.58,14.58,0,0,0,1.27,6.4,12.08,12.08,0,0,0,3.85,4.46,22.93,22.93,0,0,0,6.27,3.09c2.47.82,5.36,1.62,8.66,2.38q4.69,1.06,8.21,2.12a24.92,24.92,0,0,1,5.92,2.52,10.26,10.26,0,0,1,3.58,3.44,9.37,9.37,0,0,1,1.19,4.9,9.06,9.06,0,0,1-4.19,8.17q-4.2,2.69-11.71,2.69a34.86,34.86,0,0,1-6.89-.66,33.21,33.21,0,0,1-6.13-1.85,29.49,29.49,0,0,1-5.21-2.78,25.19,25.19,0,0,1-3.11-2.47h0c-.79-.68-1.28-.36-1.45-.14l-.17.14h0l-2.46,4.14a37.46,37.46,0,0,0,25.2,9.09,38.27,38.27,0,0,0,9.12-1,20.83,20.83,0,0,0,7.16-3.13,15.09,15.09,0,0,0,4.69-5.3,15.94,15.94,0,0,0,1.68-7.5A14.94,14.94,0,0,0,496.23,127.53Z" style="fill:url(#839c58b6-de3c-4948-8c42-f9a02d9fdef4)"></path><path d="M568.91,94.15a7.27,7.27,0,0,1,6.45-3.27,13.1,13.1,0,0,1,3.67.53,9.18,9.18,0,0,1,3,1.5l1.85-4.33a15.32,15.32,0,0,0-4.42-2.12,17.66,17.66,0,0,0-5.29-.8,11.3,11.3,0,0,0-9.67,4.81c-2.42,3.21-3.4,7.64-3.4,13.29v1.14h-6.61s-.8-.11-.8,1v3.18s.35.92,1,.92h6.37v41.21h5.56V110H578a.73.73,0,0,0,.75-.92v-3.18c0-1.19-.51-1-.51-1H566.7V103.6Q566.7,97.41,568.91,94.15Z" style="fill:url(#dc41be32-a637-4cf5-96d2-984cb1ed5cbc)"></path><path d="M608.84,144a20.55,20.55,0,0,1-2.47,1.2,11.33,11.33,0,0,1-4.51.84,6.87,6.87,0,0,1-.76-.06v0l-.15,0-.37-.05-.64-.14-.23-.06a5.63,5.63,0,0,1-1.6-.79l-.13-.08-.25-.21,0,0c-.05-.06-.19-.11-.24-.16a5.69,5.69,0,0,1-1.59-3.36V110H606c.74,0,.49-.92.49-.92v-3.42c0-1.07-.43-.75-.43-.75H595.87V90.57c0-1-.67-.65-.67-.65l.09.17h-4.06c-.93,0-.92.35-.92.35v14.47h-5.78s-.7-.21-.7,1v3.18s0,.64.93.64V110h5.55v32.73a9,9,0,0,0,.78,3.88,8,8,0,0,0,2.11,2.78A8.67,8.67,0,0,0,596.3,151a13,13,0,0,0,3.7.52,17.48,17.48,0,0,0,3.54-.34,29.08,29.08,0,0,0,3-.8c.88-.3,1.66-.59,2.33-.88s1.19-.53,1.55-.71Z" style="fill:url(#5da7b914-85e9-45a0-b3fa-1d5e4463acf3)"></path><path d="M214.82,206.2a6.2,6.2,0,0,1-4.49,1.63h-6.14v-17h6.14a6.2,6.2,0,0,1,4.49,1.63c1.91,1.91,1.72,4.25,1.72,6.81S216.74,204.29,214.82,206.2Zm-2.32-11.37a3,3,0,0,0-2.48-1.05h-2.51v11.09H210a3,3,0,0,0,2.48-1.05c.62-.76.72-2,.72-4.56S213.13,195.59,212.51,194.83Z" style="fill:#260e06"></path><path d="M226.68,207.83v-1.08a3.78,3.78,0,0,1-3.06,1.19,4.25,4.25,0,0,1-3.18-1.1,4,4,0,0,1-1-2.8c0-2,1.36-3.61,4.25-3.61h2.94v-.62c0-1.36-.67-2-2.32-2a2.67,2.67,0,0,0-2.39,1l-2-1.94c1.22-1.34,2.41-1.72,4.49-1.72,3.49,0,5.3,1.48,5.3,4.4v8.2Zm-.07-5.26h-2.46c-1.12,0-1.74.53-1.74,1.41s.57,1.43,1.79,1.43a2.46,2.46,0,0,0,2-.6,2,2,0,0,0,.45-1.58Z" style="fill:#260e06"></path><path d="M242.81,206.85a4.34,4.34,0,0,1-3,1.12,3.68,3.68,0,0,1-3-1.24v5.66h-3.11v-17h3v1.17a3.78,3.78,0,0,1,3.11-1.31,4.34,4.34,0,0,1,3,1.12c1.24,1.24,1.27,3.37,1.27,5.23S244.05,205.61,242.81,206.85ZM238.87,198c-1.86,0-2.1,1.53-2.1,3.56s.24,3.58,2.1,3.58,2.1-1.55,2.1-3.58S240.73,198,238.87,198Z" style="fill:#260e06"></path><path d="M254.81,207.83v-1.15A4.26,4.26,0,0,1,251.7,208a4,4,0,0,1-2.94-1.1,4.61,4.61,0,0,1-1.27-3.54v-8h3.11v7.53a2.08,2.08,0,1,0,4.13,0v-7.53h3.11v12.45Z" style="fill:#260e06"></path><path d="M268.69,198.77a2.08,2.08,0,0,0-3.66,1.55v7.5h-3.11V195.38h3v1.19a4.21,4.21,0,0,1,3.13-1.34,3.76,3.76,0,0,1,2.94,1.17Z" style="fill:#260e06"></path><path d="M284.46,208c-2.58,0-4.54-.55-6.21-2.25l2.15-2.15a5.57,5.57,0,0,0,4.11,1.43c2,0,3-.74,3-2.1a1.9,1.9,0,0,0-.53-1.43,2.53,2.53,0,0,0-1.51-.6l-2.06-.29a5.77,5.77,0,0,1-3.3-1.41,4.49,4.49,0,0,1-1.22-3.34c0-3,2.25-5.16,5.93-5.16a7.29,7.29,0,0,1,5.5,2l-2.1,2.08a4.73,4.73,0,0,0-3.49-1.17c-1.77,0-2.63,1-2.63,2.15a1.64,1.64,0,0,0,.5,1.22,2.92,2.92,0,0,0,1.58.67l2,.29a5.63,5.63,0,0,1,3.25,1.31,4.77,4.77,0,0,1,1.31,3.61C290.77,206.11,288,208,284.46,208Z" style="fill:#260e06"></path><path d="M302.86,206.44A5.16,5.16,0,0,1,299,208a5.1,5.1,0,0,1-3.85-1.53c-1.12-1.17-1.41-2.58-1.41-4.85s.29-3.66,1.41-4.83a5.1,5.1,0,0,1,3.85-1.53,5.16,5.16,0,0,1,3.87,1.53c1.12,1.17,1.41,2.58,1.41,4.83S304,205.27,302.86,206.44Zm-2.41-7.86A2,2,0,0,0,299,198a1.91,1.91,0,0,0-1.43.55c-.65.64-.72,1.72-.72,3s.07,2.39.72,3a1.91,1.91,0,0,0,1.43.55,2,2,0,0,0,1.46-.55c.65-.64.72-1.74.72-3S301.1,199.23,300.45,198.58Z" style="fill:#260e06"></path><path d="M311.33,198.1v9.73h-3.11V198.1h-1.29v-2.37h1.29v-1.55a3.4,3.4,0,0,1,3.63-3.56h1.77v2.63H312.4c-.74,0-1.08.41-1.08,1.12v1.36h2.29v2.37Z" style="fill:#260e06"></path><path d="M320.5,207.83a3.38,3.38,0,0,1-3.61-3.56V198.1h-1.31v-2.37h1.31v-3.68H320v3.68h2.2v2.37H320v6c0,.72.33,1.12,1.08,1.12h1.12v2.63Z" style="fill:#260e06"></path><path d="M338.11,207.83h-2.56L333,200l-2.6,7.81h-2.56L324,195.38h3.3l2,7.69,2.53-7.69h2.27l2.56,7.69,2-7.69h3.27Z" style="fill:#260e06"></path><path d="M350.73,207.83v-1.08a3.78,3.78,0,0,1-3.06,1.19,4.25,4.25,0,0,1-3.18-1.1,4,4,0,0,1-1-2.8c0-2,1.36-3.61,4.25-3.61h2.94v-.62c0-1.36-.67-2-2.32-2a2.67,2.67,0,0,0-2.39,1L344,197c1.22-1.34,2.41-1.72,4.49-1.72,3.49,0,5.3,1.48,5.3,4.4v8.2Zm-.07-5.26H348.2c-1.12,0-1.74.53-1.74,1.41s.57,1.43,1.79,1.43a2.46,2.46,0,0,0,2-.6,2,2,0,0,0,.45-1.58Z" style="fill:#260e06"></path><path d="M364.47,198.77a2.08,2.08,0,0,0-3.66,1.55v7.5h-3.11V195.38h3v1.19a4.22,4.22,0,0,1,3.13-1.34,3.76,3.76,0,0,1,2.94,1.17Z" style="fill:#260e06"></path><path d="M370.88,202.57a2.57,2.57,0,0,0,2.72,2.77,3.44,3.44,0,0,0,2.82-1.17l1.89,1.84a5.93,5.93,0,0,1-4.73,2c-2.94,0-5.76-1.34-5.76-6.38,0-4.06,2.2-6.36,5.42-6.36,3.46,0,5.42,2.53,5.42,6v1.39Zm4.44-3.46a2.32,2.32,0,0,0-4.16,0,3.43,3.43,0,0,0-.29,1.34h4.73A3.43,3.43,0,0,0,375.32,199.11Z" style="fill:#260e06"></path><path d="M399.22,207.83,398,206.35a6.29,6.29,0,0,1-4.4,1.63c-3.75,0-5.62-2-5.62-5.16,0-2.17,1.58-3.59,3.06-4.56a5.54,5.54,0,0,1-1.7-3.61c0-2.32,1.7-4,4.54-4,2.68,0,4.35,1.7,4.35,4a3.55,3.55,0,0,1-1.74,3s-.79.6-1.22.88l2.87,3.39a5.32,5.32,0,0,0,.86-3h2.94a8.23,8.23,0,0,1-1.82,5.28l3.06,3.61Zm-6.52-7.67c-1,.72-1.72,1.39-1.72,2.6a2.43,2.43,0,0,0,2.58,2.39,3.56,3.56,0,0,0,2.53-1Zm1.17-6.84a1.3,1.3,0,0,0-1.41,1.39c0,.62.53,1.22,1.12,1.91.24-.14.72-.48.72-.48a1.85,1.85,0,0,0,1-1.43A1.32,1.32,0,0,0,393.87,193.32Z" style="fill:#260e06"></path><path d="M422.38,207.83,418,200.09l-2.2,2.63v5.11h-3.32v-17h3.32v7.41l6-7.41h4l-5.64,6.76,6,10.25Z" style="fill:#260e06"></path><path d="M437.34,206.44a5.16,5.16,0,0,1-3.87,1.53,5.1,5.1,0,0,1-3.85-1.53c-1.12-1.17-1.41-2.58-1.41-4.85s.29-3.66,1.41-4.83a5.1,5.1,0,0,1,3.85-1.53,5.16,5.16,0,0,1,3.87,1.53c1.12,1.17,1.41,2.58,1.41,4.83S438.46,205.27,437.34,206.44Zm-2.41-7.86a2,2,0,0,0-1.46-.55,1.91,1.91,0,0,0-1.43.55c-.65.64-.72,1.72-.72,3s.07,2.39.72,3a1.91,1.91,0,0,0,1.43.55,2,2,0,0,0,1.46-.55c.65-.64.72-1.74.72-3S435.57,199.23,434.93,198.58Z" style="fill:#260e06"></path><path d="M449.55,207.83V200.3a2.08,2.08,0,1,0-4.13,0v7.53h-3.11V195.38h3v1.15a4.26,4.26,0,0,1,3.11-1.29,4,4,0,0,1,2.94,1.1,4.61,4.61,0,0,1,1.27,3.54v8Z" style="fill:#260e06"></path><path d="M460.69,208c-2,0-3.73-.21-5.3-1.79l2-2a4.52,4.52,0,0,0,3.32,1.17c1.08,0,2.2-.36,2.2-1.29,0-.62-.33-1.05-1.31-1.15l-2-.19c-2.25-.21-3.63-1.19-3.63-3.49,0-2.58,2.27-4,4.8-4a6.61,6.61,0,0,1,4.76,1.46l-1.91,1.94a4.32,4.32,0,0,0-2.89-.84c-1.24,0-1.77.57-1.77,1.2,0,.45.19,1,1.29,1.08l2,.19c2.46.24,3.7,1.55,3.7,3.66C466,206.66,463.63,208,460.69,208Z" style="fill:#260e06"></path><path d="M476.34,207.83v-1.15a4.26,4.26,0,0,1-3.11,1.29,4,4,0,0,1-2.94-1.1,4.61,4.61,0,0,1-1.27-3.54v-8h3.11v7.53a2.08,2.08,0,1,0,4.13,0v-7.53h3.11v12.45Z" style="fill:#260e06"></path><path d="M487,207.83a3.38,3.38,0,0,1-3.63-3.56V190.82h3.11v13.26c0,.74.31,1.12,1.1,1.12h1.19v2.63Z" style="fill:#260e06"></path><path d="M495.72,207.83a3.38,3.38,0,0,1-3.61-3.56V198.1H490.8v-2.37h1.31v-3.68h3.11v3.68h2.2v2.37h-2.2v6c0,.72.33,1.12,1.08,1.12h1.12v2.63Z" style="fill:#260e06"></path><path d="M507.15,207.83v-1.08a3.78,3.78,0,0,1-3.06,1.19,4.25,4.25,0,0,1-3.18-1.1,4,4,0,0,1-1-2.8c0-2,1.36-3.61,4.25-3.61h2.94v-.62c0-1.36-.67-2-2.32-2a2.67,2.67,0,0,0-2.39,1l-2-1.94c1.22-1.34,2.41-1.72,4.49-1.72,3.49,0,5.3,1.48,5.3,4.4v8.2Zm-.07-5.26h-2.46c-1.12,0-1.74.53-1.74,1.41s.57,1.43,1.79,1.43a2.46,2.46,0,0,0,2-.6,2,2,0,0,0,.45-1.58Z" style="fill:#260e06"></path><path d="M521.37,207.83V200.3a2.08,2.08,0,1,0-4.13,0v7.53h-3.11V195.38h3v1.15a4.26,4.26,0,0,1,3.11-1.29,4,4,0,0,1,2.94,1.1,4.61,4.61,0,0,1,1.27,3.54v8Z" style="fill:#260e06"></path><path d="M539.48,208c-2.58,0-4.54-.55-6.21-2.25l2.15-2.15a5.57,5.57,0,0,0,4.11,1.43c2,0,3-.74,3-2.1a1.9,1.9,0,0,0-.53-1.43,2.53,2.53,0,0,0-1.51-.6l-2.06-.29a5.77,5.77,0,0,1-3.3-1.41,4.49,4.49,0,0,1-1.22-3.34c0-3,2.25-5.16,5.93-5.16a7.29,7.29,0,0,1,5.5,2l-2.1,2.08a4.74,4.74,0,0,0-3.49-1.17c-1.77,0-2.63,1-2.63,2.15a1.64,1.64,0,0,0,.5,1.22,2.92,2.92,0,0,0,1.58.67l2,.29a5.63,5.63,0,0,1,3.25,1.31,4.77,4.77,0,0,1,1.31,3.61C545.79,206.11,543,208,539.48,208Z" style="fill:#260e06"></path><path d="M549.23,193.25v-2.53h3.18v2.53Zm0,14.58V195.38h3.11v12.45Z" style="fill:#260e06"></path><path d="M560.54,208c-2,0-3.73-.21-5.3-1.79l2-2a4.52,4.52,0,0,0,3.32,1.17c1.08,0,2.2-.36,2.2-1.29,0-.62-.33-1.05-1.31-1.15l-2-.19c-2.25-.21-3.63-1.19-3.63-3.49,0-2.58,2.27-4,4.8-4a6.61,6.61,0,0,1,4.76,1.46l-1.91,1.94a4.32,4.32,0,0,0-2.89-.84c-1.24,0-1.77.57-1.77,1.2,0,.45.19,1,1.29,1.08l2,.19c2.46.24,3.7,1.55,3.7,3.66C565.82,206.66,563.47,208,560.54,208Z" style="fill:#260e06"></path><path d="M572.68,207.83a3.38,3.38,0,0,1-3.61-3.56V198.1h-1.31v-2.37h1.31v-3.68h3.11v3.68h2.2v2.37h-2.2v6c0,.72.33,1.12,1.08,1.12h1.12v2.63Z" style="fill:#260e06"></path><path d="M580.16,202.57a2.57,2.57,0,0,0,2.72,2.77,3.44,3.44,0,0,0,2.82-1.17l1.89,1.84a5.93,5.93,0,0,1-4.73,2c-2.94,0-5.76-1.34-5.76-6.38,0-4.06,2.2-6.36,5.42-6.36,3.46,0,5.42,2.53,5.42,6v1.39Zm4.44-3.46a2.32,2.32,0,0,0-4.16,0,3.43,3.43,0,0,0-.29,1.34h4.73A3.43,3.43,0,0,0,584.6,199.11Z" style="fill:#260e06"></path><path d="M605.89,207.83V200.3a2.07,2.07,0,1,0-4.13-.07v7.6h-3.11V200.3a2.08,2.08,0,1,0-4.13,0v7.53h-3.11V195.38h3v1.15a4.36,4.36,0,0,1,3.11-1.29,3.86,3.86,0,0,1,3.3,1.58,4.75,4.75,0,0,1,3.73-1.58,4.34,4.34,0,0,1,3.06,1.1,4.69,4.69,0,0,1,1.36,3.54v8Z" style="fill:#260e06"></path><path d="M12.19,110.34c0-.54,0,.25,0,.25h0a5.22,5.22,0,0,1,0-.63Z" style="fill:#260e06"></path><path d="M154.79,141.52c-.94-6.15-3.65-10.23-7-12.94h0c-5.9-5.23-14.19-5.69-20.12-5.14a60.66,60.66,0,0,0-6.49.7,212.62,212.62,0,0,1-72.15-4.32v0l-2.13-.54c-6.74-2.38-10.65-5-12.89-7.39A9.52,9.52,0,0,1,32,102.61c4.13-11.67,21.83-17,30.68-18.88,1.11-.32,2.25-.69,3.45-1C42.31,84.62,18.45,91,12.18,107.12l.4,1.47c-.12.31-.23,2-.3,2h-.06a6.1,6.1,0,0,0,.63,2.08,15.06,15.06,0,0,0,3.25,4.68c2.23,2.15,8.6,6.82,24,10.64,2.9.69,6.46,1.42,10.63,2.16l.87.13a240.56,240.56,0,0,0,71.88.87s17.89-2.41,18.89,13.29a42.58,42.58,0,0,1-.13,6A57.26,57.26,0,0,1,134,174.11c-7,11.16-18.79,21.47-37,27.47h0a153.54,153.54,0,0,1-37.18,5l2.29.56c6.18,1.41,23.26,4.74,41.63,1.37h0l.24,0q1.32-.25,2.66-.54l1.23-.28,1.34-.34c33.76-8.61,41.79-34.9,41.79-34.9h0C157.66,155.65,155,142.51,154.79,141.52Z" style="fill:#260e06"></path><path d="M111.68,108.23h0c.77-3.59.4-8.53-4.07-14-3.93-4.46-10.33-7.71-19.89-7.71-1.83,0-3.63.1-5.38.25-.71.13-2.22.54-2.23,1.68,0,.65,1,1.71,1.64,2.33l.34.33.17.15.14.14c.19.19.38.36.58.56l.08.12a18.82,18.82,0,0,1,4.64,8.45,1.83,1.83,0,0,1,.17,1c-1.07.25-6.21-6.11-7.8-8.11s-2-4-2.9-4.76-3-.41-3-.41a4.26,4.26,0,0,0-1.65.25C62,91.38,59.53,97.21,59.53,103.91c0,7,5.33,12.68,15.44,15.68h0a2.47,2.47,0,0,1,.38.08,43.35,43.35,0,0,0,6.1,1.06,47.74,47.74,0,0,0,16.27-.56C101.36,119.25,109.65,116.33,111.68,108.23Z" style="fill:url(#0d9c0b3e-23df-4102-8391-6356e0e750e1)"></path></svg> 